<?xml version="1.0" encoding="UTF-8" standalone="no"?>
<!-- Created with Inkscape (http://www.inkscape.org/) -->

<svg
   xmlns:dc="http://purl.org/dc/elements/1.1/"
   xmlns:cc="http://creativecommons.org/ns#"
   xmlns:rdf="http://www.w3.org/1999/02/22-rdf-syntax-ns#"
   xmlns:svg="http://www.w3.org/2000/svg"
   xmlns="http://www.w3.org/2000/svg"
   xmlns:sodipodi="http://sodipodi.sourceforge.net/DTD/sodipodi-0.dtd"
   xmlns:inkscape="http://www.inkscape.org/namespaces/inkscape"
   width="210mm"
   height="297mm"
   viewBox="0 0 210 297"
   version="1.1"
   id="svg8"
   inkscape:version="0.92.1 r15371"
   sodipodi:docname="icon.svg">
  <defs
     id="defs2" />
  <sodipodi:namedview
     id="base"
     pagecolor="#ffffff"
     bordercolor="#666666"
     borderopacity="1.0"
     inkscape:pageopacity="0.0"
     inkscape:pageshadow="2"
     inkscape:zoom="1.4"
     inkscape:cx="218.02551"
     inkscape:cy="785.8412"
     inkscape:document-units="mm"
     inkscape:current-layer="layer1"
     showgrid="false"
     inkscape:window-width="1920"
     inkscape:window-height="1017"
     inkscape:window-x="1920"
     inkscape:window-y="0"
     inkscape:window-maximized="1" />
  <metadata
     id="metadata5">
    <rdf:RDF>
      <cc:Work
         rdf:about="">
        <dc:format>image/svg+xml</dc:format>
        <dc:type
           rdf:resource="http://purl.org/dc/dcmitype/StillImage" />
        <dc:title></dc:title>
      </cc:Work>
    </rdf:RDF>
  </metadata>
  <g
     inkscape:label="Calque 1"
     inkscape:groupmode="layer"
     id="layer1">
    <flowRoot
       xml:space="preserve"
       id="flowRoot18"
       style="fill:black;stroke:none;stroke-opacity:1;stroke-width:1px;stroke-linejoin:miter;stroke-linecap:butt;fill-opacity:1;font-family:sans-serif;font-style:normal;font-weight:normal;font-size:40px;line-height:125%;letter-spacing:0px;word-spacing:0px"><flowRegion
         id="flowRegion20"><rect
           id="rect22"
           width="2.8571429"
           height="85.714287"
           x="162.85715"
           y="365.37683" /></flowRegion><flowPara
         id="flowPara24"></flowPara></flowRoot>    <g
       id="g51"
       transform="rotate(45,89.529245,86.80271)"
       style="fill:#000000"
       inkscape:export-xdpi="32.239254"
       inkscape:export-ydpi="32.239254">
      <g
         id="flowRoot10"
         style="font-style:normal;font-weight:normal;font-size:40px;line-height:125%;font-family:sans-serif;letter-spacing:0px;word-spacing:0px;fill:#000000;fill-opacity:1;stroke:none;stroke-width:1px;stroke-linecap:butt;stroke-linejoin:miter;stroke-opacity:1"
         transform="scale(0.26458333)"
         aria-label="€">
        <path
           id="path26"
           style="font-style:normal;font-variant:normal;font-weight:bold;font-stretch:normal;font-size:266.66665649px;font-family:Verdana;-inkscape-font-specification:'Verdana Bold';fill:#000000"
           d="m 162.85742,295.52116 6.25,-17.44792 h 7.55208 q -0.1302,-2.60417 -0.26041,-5.20833 -0.13021,-2.73438 -0.13021,-5.46875 0,-3.125 0.13021,-6.11979 0.13021,-3.125 0.39062,-6.1198 h -13.93229 l 6.25,-17.44791 h 10.28646 q 7.55208,-33.20313 31.90104,-52.21354 24.47917,-19.01042 61.97916,-19.01042 21.22396,0 36.58854,4.16667 15.4948,4.16667 31.1198,11.97917 v 47.0052 h -5.72917 q -11.45833,-11.32812 -24.86979,-18.48958 -13.28125,-7.29167 -29.42708,-7.29167 -16.27605,0 -29.42709,9.11459 -13.02083,8.98437 -18.75,24.73958 h 38.41146 l -6.25,17.44791 h -36.06771 q -0.26041,2.86459 -0.52083,6.1198 -0.13021,3.125 -0.13021,6.25 0,2.73437 0.13021,5.46875 0.13021,2.60416 0.39063,5.07812 h 27.73437 l -6.25,17.44792 h -17.96875 q 5.33854,15.88541 18.09896,25.52083 12.89062,9.50521 30.85937,9.50521 16.14584,0 30.33854,-7.16146 14.19271,-7.16146 24.21875,-18.48958 h 5.20834 v 46.35416 q -19.14063,9.24479 -33.72396,12.89063 -14.45313,3.77604 -34.11458,3.77604 -38.15104,0 -62.63021,-19.01042 -24.34896,-19.14062 -31.51042,-53.38541 z"
           inkscape:connector-curvature="0" />
      </g>
      <g
         id="flowRoot10-3"
         style="font-style:normal;font-weight:normal;font-size:40px;line-height:125%;font-family:sans-serif;letter-spacing:0px;word-spacing:0px;fill:#000000;fill-opacity:1;stroke:none;stroke-width:1px;stroke-linecap:butt;stroke-linejoin:miter;stroke-opacity:1"
         aria-label="€"
         transform="matrix(-0.26458333,0,0,-0.26458333,179.05849,173.60542)">
        <path
           id="path26-6"
           style="font-style:normal;font-variant:normal;font-weight:bold;font-stretch:normal;font-size:266.66665649px;font-family:Verdana;-inkscape-font-specification:'Verdana Bold';fill:#000000"
           d="m 162.85742,295.52116 6.25,-17.44792 h 7.55208 q -0.1302,-2.60417 -0.26041,-5.20833 -0.13021,-2.73438 -0.13021,-5.46875 0,-3.125 0.13021,-6.11979 0.13021,-3.125 0.39062,-6.1198 h -13.93229 l 6.25,-17.44791 h 10.28646 q 7.55208,-33.20313 31.90104,-52.21354 24.47917,-19.01042 61.97916,-19.01042 21.22396,0 36.58854,4.16667 15.4948,4.16667 31.1198,11.97917 v 47.0052 h -5.72917 q -11.45833,-11.32812 -24.86979,-18.48958 -13.28125,-7.29167 -29.42708,-7.29167 -16.27605,0 -29.42709,9.11459 -13.02083,8.98437 -18.75,24.73958 h 38.41146 l -6.25,17.44791 h -36.06771 q -0.26041,2.86459 -0.52083,6.1198 -0.13021,3.125 -0.13021,6.25 0,2.73437 0.13021,5.46875 0.13021,2.60416 0.39063,5.07812 h 27.73437 l -6.25,17.44792 h -17.96875 q 5.33854,15.88541 18.09896,25.52083 12.89062,9.50521 30.85937,9.50521 16.14584,0 30.33854,-7.16146 14.19271,-7.16146 24.21875,-18.48958 h 5.20834 v 46.35416 q -19.14063,9.24479 -33.72396,12.89063 -14.45313,3.77604 -34.11458,3.77604 -38.15104,0 -62.63021,-19.01042 -24.34896,-19.14062 -31.51042,-53.38541 z"
           inkscape:connector-curvature="0" />
      </g>
    </g>
    <g
       id="g3742"
       style="fill:#000000;"
       transform="translate(0.04338418,-0.75123363)"
       inkscape:export-xdpi="32.239254"
       inkscape:export-ydpi="32.239254">
      <rect
         y="76.639877"
         x="59.153271"
         height="8.1264877"
         width="60.66518"
         id="rect3723"
         style="opacity:0.95999995;fill:#000000;fill-opacity:1;stroke:none;stroke-width:0" />
      <rect
         y="90.341522"
         x="59.153271"
         height="8.1264877"
         width="60.66518"
         id="rect3723-7"
         style="opacity:0.95999995;fill:#000000;fill-opacity:1;stroke:none;stroke-width:0" />
    </g>
  </g>
</svg>
